<svg width="67" height="38" viewBox="0 0 67 38" fill="none" xmlns="http://www.w3.org/2000/svg">
<path d="M2.44486 0.459778H64.5545C64.99 0.459778 65.3733 0.552118 65.6989 0.737178C66.0252 0.923378 66.1893 1.13884 66.1893 1.38698V6.94942C66.1893 7.19642 66.0252 7.4134 65.6989 7.59808C65.3733 7.78352 64.99 7.87624 64.5545 7.87624H2.44486C2.00735 7.87624 1.62813 7.78352 1.3005 7.59808C0.972869 7.4134 0.810059 7.19642 0.810059 6.94942V1.38698C0.810059 1.13884 0.972869 0.923378 1.3005 0.737178C1.6288 0.552118 2.00735 0.459778 2.44486 0.459778ZM2.44486 15.2916H64.5545C64.99 15.2916 65.3733 15.3843 65.6989 15.5686C66.0252 15.7533 66.1893 15.971 66.1893 16.218V21.7804C66.1893 22.0274 66.0252 22.2448 65.6989 22.4295C65.3733 22.6149 64.99 22.7092 64.5545 22.7092H2.44486C2.00735 22.7092 1.62813 22.6149 1.3005 22.4295C0.972869 22.2448 0.810059 22.0274 0.810059 21.7804V16.218C0.810059 15.971 0.972869 15.7533 1.3005 15.5686C1.6288 15.3843 2.00735 15.2916 2.44486 15.2916ZM2.44486 30.1233H64.5545C64.99 30.1233 65.3733 30.2149 65.6989 30.4011C66.0252 30.5873 66.1893 30.8032 66.1893 31.0517V36.6141C66.1893 36.8611 66.0252 37.0773 65.6989 37.2632C65.3733 37.4475 64.99 37.5402 64.5545 37.5402H2.44486C2.00735 37.5402 1.62813 37.4478 1.3005 37.2632C0.972869 37.0773 0.810059 36.8611 0.810059 36.6141V31.0521C0.810059 30.8035 0.972869 30.5877 1.3005 30.4015C1.62813 30.2153 2.00735 30.1233 2.44486 30.1233Z" fill="black"/>
</svg>
